HIERARCHY
ROOT Root
{
  OFFSET 0.0 0.0 0.0
  CHANNELS 6 Xposition Yposition Zposition Zrotation Yrotation Xrotation
  JOINT Hips
  {
    OFFSET 0.0 100.0 0.0
    CHANNELS 6 Xposition Yposition Zposition Zrotation Yrotation Xrotation
    JOINT Spine1
    {
      OFFSET -0.013727 5.003763 -0.053727
      CHANNELS 3 Zrotation Yrotation Xrotation
      JOINT Spine2
      {
        OFFSET -0.0 7.125301 -0.029825
        CHANNELS 3 Zrotation Yrotation Xrotation
        JOINT Chest
        {
          OFFSET -1e-06 7.550063 -0.815971
          CHANNELS 3 Zrotation Yrotation Xrotation
          JOINT Neck1
          {
            OFFSET -0.181677 26.311295 -0.553348
            CHANNELS 3 Zrotation Yrotation Xrotation
            JOINT Neck2
            {
              OFFSET -3e-06 7.709397 2.302585
              CHANNELS 3 Zrotation Yrotation Xrotation
              JOINT Head
              {
                OFFSET -5e-06 6.128916 1.953709
                CHANNELS 3 Zrotation Yrotation Xrotation
                JOINT HeadEnd
                {
                  OFFSET 0.003598 16.065403 -1.835379
                  CHANNELS 3 Zrotation Yrotation Xrotation
                }
                JOINT Jaw
                {
                  OFFSET 0.002637 0.475592 3.094941
                  CHANNELS 3 Zrotation Yrotation Xrotation
                }
                JOINT LeftEye
                {
                  OFFSET 3.206381 5.380205 7.586883
                  CHANNELS 3 Zrotation Yrotation Xrotation
                }
                JOINT RightEye
                {
                  OFFSET -3.22244 5.361869 7.558234
                  CHANNELS 3 Zrotation Yrotation Xrotation
                }
              }
            }
          }
          JOINT LeftShoulder
          {
            OFFSET 1.621652 23.237164 5.113413
            CHANNELS 3 Zrotation Yrotation Xrotation
            JOINT LeftArm
            {
              OFFSET 14.919846 2e-06 -5.502326
              CHANNELS 3 Zrotation Yrotation Xrotation
              JOINT LeftForeArm
              {
                OFFSET 28.739307 0.0 -0.002588
                CHANNELS 3 Zrotation Yrotation Xrotation
                JOINT LeftHand
                {
                  OFFSET 27.093981 -1e-06 0.002609
                  CHANNELS 3 Zrotation Yrotation Xrotation
                  JOINT LeftHandThumb1
                  {
                    OFFSET 2.276482 -1.392045 3.191413
                    CHANNELS 3 Zrotation Yrotation Xrotation
                    JOINT LeftHandThumb2
                    {
                      OFFSET 4.012836 -1.828127 1.641654
                      CHANNELS 3 Zrotation Yrotation Xrotation
                      JOINT LeftHandThumb3
                      {
                        OFFSET 2.798515 0.0 -3e-06
                        CHANNELS 3 Zrotation Yrotation Xrotation
                        JOINT LeftHandThumbEnd
                        {
                          OFFSET 3.180793 -4e-06 4e-06
                          CHANNELS 3 Zrotation Yrotation Xrotation
                        }
                      }
                    }
                  }
                  JOINT LeftHandIndex1
                  {
                    OFFSET 3.247555 -0.531998 2.296169
                    CHANNELS 3 Zrotation Yrotation Xrotation
                    JOINT LeftHandIndex2
                    {
                      OFFSET 6.364578 0.01206 0.1786
                      CHANNELS 3 Zrotation Yrotation Xrotation
                      JOINT LeftHandIndex3
                      {
                        OFFSET 3.662364 0.0 0.0
                        CHANNELS 3 Zrotation Yrotation Xrotation
                        JOINT LeftHandIndex4
                        {
                          OFFSET 2.329242 4e-06 4e-06
                          CHANNELS 3 Zrotation Yrotation Xrotation
                          JOINT LeftHandIndexEnd
                          {
                            OFFSET 2.759615 -0.180537 -0.113024
                            CHANNELS 3 Zrotation Yrotation Xrotation
                          }
                        }
                      }
                    }
                  }
                  JOINT LeftHandMiddle1
                  {
                    OFFSET 3.163495 0.240981 1.000332
                    CHANNELS 3 Zrotation Yrotation Xrotation
                    JOINT LeftHandMiddle2
                    {
                      OFFSET 6.19078 -0.259278 -1.002548
                      CHANNELS 3 Zrotation Yrotation Xrotation
                      JOINT LeftHandMiddle3
                      {
                        OFFSET 4.35652 -4e-06 -1e-06
                        CHANNELS 3 Zrotation Yrotation Xrotation
                        JOINT LeftHandMiddle4
                        {
                          OFFSET 2.996877 -8e-06 0.0
                          CHANNELS 3 Zrotation Yrotation Xrotation
                          JOINT LeftHandMiddleEnd
                          {
                            OFFSET 2.304287 -0.294569 -0.031741
                            CHANNELS 3 Zrotation Yrotation Xrotation
                          }
                        }
                      }
                    }
                  }
                  JOINT LeftHandRing1
                  {
                    OFFSET 2.882643 -0.053652 -0.322543
                    CHANNELS 3 Zrotation Yrotation Xrotation
                    JOINT LeftHandRing2
                    {
                      OFFSET 5.854541 -0.486202 -1.373841
                      CHANNELS 3 Zrotation Yrotation Xrotation
                      JOINT LeftHandRing3
                      {
                        OFFSET 4.350578 0.0 3e-06
                        CHANNELS 3 Zrotation Yrotation Xrotation
                        JOINT LeftHandRing4
                        {
                          OFFSET 2.651321 7e-06 2e-06
                          CHANNELS 3 Zrotation Yrotation Xrotation
                          JOINT LeftHandRingEnd
                          {
                            OFFSET 1.936105 0.077687 -7.1e-05
                            CHANNELS 3 Zrotation Yrotation Xrotation
                          }
                        }
                      }
                    }
                  }
                  JOINT LeftHandPinky1
                  {
                    OFFSET 2.8655 -0.310005 -1.600378
                    CHANNELS 3 Zrotation Yrotation Xrotation
                    JOINT LeftHandPinky2
                    {
                      OFFSET 5.087849 -1.331141 -1.77123
                      CHANNELS 3 Zrotation Yrotation Xrotation
                      JOINT LeftHandPinky3
                      {
                        OFFSET 3.070974 4e-06 0.0
                        CHANNELS 3 Zrotation Yrotation Xrotation
                        JOINT LeftHandPinky4
                        {
                          OFFSET 1.549672 0.0 1e-06
                          CHANNELS 3 Zrotation Yrotation Xrotation
                          JOINT LeftHandPinkyEnd
                          {
                            OFFSET 1.944893 -0.157802 0.057219
                            CHANNELS 3 Zrotation Yrotation Xrotation
                          }
                        }
                      }
                    }
                  }
                }
              }
            }
          }
          JOINT RightShoulder
          {
            OFFSET -1.380118 23.180309 5.214158
            CHANNELS 3 Zrotation Yrotation Xrotation
            JOINT RightArm
            {
              OFFSET -15.037196 1.2e-05 -5.545604
              CHANNELS 3 Zrotation Yrotation Xrotation
              JOINT RightForeArm
              {
                OFFSET -28.736639 2e-06 -0.002597
                CHANNELS 3 Zrotation Yrotation Xrotation
                JOINT RightHand
                {
                  OFFSET -27.133619 -0.0 0.002613
                  CHANNELS 3 Zrotation Yrotation Xrotation
                  JOINT RightHandThumb1
                  {
                    OFFSET -2.274032 -1.383988 3.163127
                    CHANNELS 3 Zrotation Yrotation Xrotation
                    JOINT RightHandThumb2
                    {
                      OFFSET -4.011429 -1.827466 1.640914
                      CHANNELS 3 Zrotation Yrotation Xrotation
                      JOINT RightHandThumb3
                      {
                        OFFSET -2.794935 -4e-06 -3e-06
                        CHANNELS 3 Zrotation Yrotation Xrotation
                        JOINT RightHandThumbEnd
                        {
                          OFFSET -3.183852 4e-06 1e-06
                          CHANNELS 3 Zrotation Yrotation Xrotation
                        }
                      }
                    }
                  }
                  JOINT RightHandIndex1
                  {
                    OFFSET -3.253266 -0.520057 2.282866
                    CHANNELS 3 Zrotation Yrotation Xrotation
                    JOINT RightHandIndex2
                    {
                      OFFSET -6.341917 0.012471 0.178266
                      CHANNELS 3 Zrotation Yrotation Xrotation
                      JOINT RightHandIndex3
                      {
                        OFFSET -3.654871 -8e-06 -0.0
                        CHANNELS 3 Zrotation Yrotation Xrotation
                        JOINT RightHandIndex4
                        {
                          OFFSET -2.327586 0.0 1e-06
                          CHANNELS 3 Zrotation Yrotation Xrotation
                          JOINT RightHandIndexEnd
                          {
                            OFFSET -2.76179 -0.180656 -0.113078
                            CHANNELS 3 Zrotation Yrotation Xrotation
                          }
                        }
                      }
                    }
                  }
                  JOINT RightHandMiddle1
                  {
                    OFFSET -3.168106 0.246593 1.00103
                    CHANNELS 3 Zrotation Yrotation Xrotation
                    JOINT RightHandMiddle2
                    {
                      OFFSET -6.180828 -0.258836 -1.000895
                      CHANNELS 3 Zrotation Yrotation Xrotation
                      JOINT RightHandMiddle3
                      {
                        OFFSET -4.348901 0.0 -0.0
                        CHANNELS 3 Zrotation Yrotation Xrotation
                        JOINT RightHandMiddle4
                        {
                          OFFSET -3.00024 -4e-06 -2e-06
                          CHANNELS 3 Zrotation Yrotation Xrotation
                          JOINT RightHandMiddleEnd
                          {
                            OFFSET -2.30252 -0.29437 -0.031706
                            CHANNELS 3 Zrotation Yrotation Xrotation
                          }
                        }
                      }
                    }
                  }
                  JOINT RightHandRing1
                  {
                    OFFSET -2.88569 -0.067952 -0.308858
                    CHANNELS 3 Zrotation Yrotation Xrotation
                    JOINT RightHandRing2
                    {
                      OFFSET -5.854198 -0.48613 -1.373731
                      CHANNELS 3 Zrotation Yrotation Xrotation
                      JOINT RightHandRing3
                      {
                        OFFSET -4.33881 -4e-06 -0.0
                        CHANNELS 3 Zrotation Yrotation Xrotation
                        JOINT RightHandRing4
                        {
                          OFFSET -2.654903 -4e-06 4e-06
                          CHANNELS 3 Zrotation Yrotation Xrotation
                          JOINT RightHandRingEnd
                          {
                            OFFSET -1.933568 0.077527 -5.2e-05
                            CHANNELS 3 Zrotation Yrotation Xrotation
                          }
                        }
                      }
                    }
                  }
                  JOINT RightHandPinky1
                  {
                    OFFSET -2.866425 -0.342796 -1.584145
                    CHANNELS 3 Zrotation Yrotation Xrotation
                    JOINT RightHandPinky2
                    {
                      OFFSET -5.091371 -1.332055 -1.772385
                      CHANNELS 3 Zrotation Yrotation Xrotation
                      JOINT RightHandPinky3
                      {
                        OFFSET -3.062664 -4e-06 1e-06
                        CHANNELS 3 Zrotation Yrotation Xrotation
                        JOINT RightHandPinky4
                        {
                          OFFSET -1.546529 4e-06 -2e-06
                          CHANNELS 3 Zrotation Yrotation Xrotation
                          JOINT RightHandPinkyEnd
                          {
                            OFFSET -1.945119 -0.157718 0.057211
                            CHANNELS 3 Zrotation Yrotation Xrotation
                          }
                        }
                      }
                    }
                  }
                }
              }
            }
          }
        }
      }
    }
    JOINT LeftLeg
    {
      OFFSET 10.043214 -8.434526 2.595655
      CHANNELS 3 Zrotation Yrotation Xrotation
      JOINT LeftShin
      {
        OFFSET -1e-06 -43.221752 -0.802913
        CHANNELS 3 Zrotation Yrotation Xrotation
        JOINT LeftFoot
        {
          OFFSET 1e-06 -42.155094 -3.481523
          CHANNELS 3 Zrotation Yrotation Xrotation
          JOINT LeftToeBase
          {
            OFFSET 0.0 -5.059472 13.231529
            CHANNELS 3 Zrotation Yrotation Xrotation
            JOINT LeftToeEnd
            {
              OFFSET -0.009607 -1.647619 6.513017
              CHANNELS 3 Zrotation Yrotation Xrotation
            }
          }
        }
      }
    }
    JOINT RightLeg
    {
      OFFSET -10.047278 -8.29526 2.620317
      CHANNELS 3 Zrotation Yrotation Xrotation
      JOINT RightShin
      {
        OFFSET 1e-06 -43.362206 -0.805556
        CHANNELS 3 Zrotation Yrotation Xrotation
        JOINT RightFoot
        {
          OFFSET 2e-06 -42.117393 -3.478398
          CHANNELS 3 Zrotation Yrotation Xrotation
          JOINT RightToeBase
          {
            OFFSET -0.0 -5.079609 13.284196
            CHANNELS 3 Zrotation Yrotation Xrotation
            JOINT RightToeEnd
            {
              OFFSET 0.009532 -1.634378 6.460591
              CHANNELS 3 Zrotation Yrotation Xrotation
            }
          }
        }
      }
    }
  }
}
MOTION
Frames: 4
Frame Time: 0.03333333333333333
0.0 0.0 0.0 0.0 -0.0 0.0 7.070587 99.064034 340.941162 -0.677972 0.712246 4.06507 -1.120039 -1.49082 1.321686 -0.383484 -4.027835 -4.740973 0.367945 -6.345163 9.451501 1.376674 2.061948 7.785502 -0.651284 0.430038 -3.708495 -0.330974 0.324006 -10.932415 7.7e-05 -2.2e-05 6e-06 0.002724 -0.227351 0.033738 0.700061 -3.947857 -10.75962 -0.695984 3.498203 -10.749887 0.187601 -12.52042 13.017324 -56.117832 -7.984763 5.774434 -179.155945 -45.117817 179.238647 4.340738 -3.957279 -13.462365 -5.882107 9.861285 0.70259 -10.936875 -0.360576 7.156208 2e-06 8.774824 -0.0 -16.331833 18.242451 5.8834 -1.844033 2.498505 -2.507279 -10.163603 4.678944 4.621109 -20.976028 -5e-06 1e-06 -21.22629 2.451694 -3.594001 -0.0 -6e-06 -0.0 -1.36268 2.240798 -0.746325 -21.334919 0.584907 3.008322 -13.821218 -4e-06 1e-06 -23.887175 -0.249082 -0.839483 -60.000301 2.495831 -1.707692 -0.294027 1.679688 0.833255 -14.218212 0.093214 1.300581 -34.212063 -0.287566 0.967167 -20.033218 0.964534 1.212844 -0.0 0.0 1e-06 -3.440388 0.788234 0.501655 -15.928189 -3.167311 2.999707 -6.338829 -1e-06 -0.0 -18.123453 3.648181 -4.905675 -4e-06 -0.0 -3e-06 19.905504 -3.38085 19.673115 51.72998 -21.173765 15.40716 -179.583221 76.177376 179.354889 -4.083938 12.388754 1.707884 2.243543 -5.25504 -3.18016 14.282896 -0.826595 6.952507 -1e-06 -12.690609 -1e-06 15.845477 -17.226328 2.429441 1.665666 -1.955922 -2.878301 4.727801 -4.170589 4.993926 11.020531 -0.0 -2e-06 12.109058 -3.73572 -2.866786 2e-06 -1e-06 -1e-06 1.291987 -1.928551 -1.49809 14.800132 0.567467 3.865609 14.242577 -1.341738 -6.660662 19.631973 0.143925 -0.648248 50.0173 -0.844 -6.181293 0.35303 -1.511152 -0.03194 20.222801 3.684309 2.316631 18.787277 4e-06 -3e-06 10.751631 -0.479869 1.397905 -0.0 0.0 1e-06 3.273808 0.305947 -0.580111 21.48682 11.830379 2.266133 8.16293 1e-06 -0.0 18.399094 -3.798988 -4.940579 4e-06 -1e-06 -1e-06 -0.956894 0.567968 8.144446 -0.020503 0.300367 19.654692 0.426579 -4.75471 -4.919517 2.038703 -1.890885 -15.673462 0.0 0.0 2e-06 5.249198 -8.594935 -32.818146 -0.072381 -0.13321 34.044083 0.286362 -6.020433 -7.080845 -1.484171 0.870121 -4.030797 -0.0 -0.0 -1e-06 
0.0 0.0 0.0 0.0 -0.0 0.0 7.05982 99.88868 349.317047 0.355244 0.851266 4.414817 -1.406733 -1.404942 0.649618 -0.418441 -4.502798 -4.959682 0.220637 -6.415553 9.265553 1.68717 2.179568 8.082799 -0.571569 0.26816 -3.625974 -0.289959 0.411441 -9.855212 7.7e-05 -2.3e-05 6e-06 0.002449 -0.136194 0.044795 0.690134 -3.874852 -10.745534 -0.685722 3.60948 -10.746711 0.328279 -12.562119 13.105819 -54.346493 -7.403524 7.287076 -179.737473 -42.783985 179.544754 3.528582 -4.071338 -13.076396 -5.882105 9.861288 0.70259 -10.93687 -0.360575 7.156207 -0.0 8.774824 -2e-06 -16.45573 18.16716 5.803938 -1.844031 2.498506 -2.507277 -10.163597 4.678946 4.621109 -20.976021 -2e-06 2e-06 -21.226284 2.451699 -3.594002 1e-06 -6e-06 -0.0 -1.362679 2.2408 -0.746324 -21.334913 0.584911 3.008323 -13.821213 -2e-06 3e-06 -23.887171 -0.249079 -0.839485 -60.119781 2.548074 -1.504356 -0.294025 1.679688 0.833256 -14.218207 0.093215 1.30058 -34.212048 -0.287562 0.967172 -20.033211 0.964537 1.212842 -0.0 1e-06 -0.0 -3.440387 0.788233 0.501655 -15.928185 -3.167309 2.999709 -6.338826 -0.0 -0.0 -18.123444 3.648184 -4.905674 -4e-06 -0.0 -1e-06 19.376446 -3.65363 19.570843 53.271667 -22.595911 15.053256 -178.226364 74.84214 -178.945267 -3.658851 11.776046 1.70112 2.243541 -5.255037 -3.180158 14.282889 -0.826595 6.952503 -2e-06 -12.690605 0.0 15.666145 -17.400198 2.529143 1.665666 -1.95592 -2.878299 4.727798 -4.170587 4.993925 11.020526 1e-06 -1e-06 12.109055 -3.735715 -2.866784 0.0 -0.0 0.0 1.291985 -1.928548 -1.49809 14.800129 0.567467 3.865608 14.242572 -1.341735 -6.660657 19.631969 0.143925 -0.648243 50.037048 -0.888358 -6.226951 0.353029 -1.511152 -0.03194 20.22279 3.684311 2.316631 18.78727 4e-06 -1e-06 10.751625 -0.479868 1.397906 0.0 -0.0 2e-06 3.273806 0.305948 -0.580111 21.486813 11.830376 2.266133 8.162926 1e-06 -0.0 18.39908 -3.798986 -4.940575 3e-06 0.0 -1e-06 -1.681728 -0.562149 10.2688 -0.165838 0.446421 21.774103 -1.791779 -5.686696 5.406107 2.087804 -1.759938 -17.966328 -0.0 -0.0 1e-06 5.418195 -8.344445 -30.445347 0.100701 -0.09243 18.18092 3.579791 -3.432517 -7.351505 -1.452331 0.921988 -4.434286 -0.0 -0.0 -0.0 
0.0 0.0 0.0 0.0 -0.0 0.0 7.014622 99.751785 357.587006 1.559583 0.831953 4.15963 -1.546568 -1.165175 0.540501 -0.537396 -4.440483 -4.944599 -0.168415 -6.096422 9.227959 1.942442 2.287842 7.813462 -0.68375 0.291621 -3.629933 -0.396362 0.276453 -8.91954 7.7e-05 -2.2e-05 6e-06 0.002507 -0.036837 0.03907 0.684151 -3.781121 -10.72541 -0.680021 3.714141 -10.727653 -0.595429 -12.194117 13.298446 -52.397129 -5.64659 8.898355 -179.777985 -42.076885 179.486877 2.779543 -4.204128 -12.78397 -5.882104 9.861283 0.70259 -10.936868 -0.360576 7.156206 1e-06 8.774822 -1e-06 -16.488411 18.384491 5.718683 -1.844034 2.498504 -2.507278 -10.163595 4.678944 4.621109 -20.976021 -4e-06 3e-06 -21.226282 2.451695 -3.594 1e-06 -6e-06 -1e-06 -1.362681 2.240799 -0.746324 -21.334906 0.584909 3.008323 -13.82121 -3e-06 4e-06 -23.887161 -0.249079 -0.839483 -60.177067 2.639505 -1.480256 -0.294024 1.679686 0.833256 -14.218203 0.093214 1.30058 -34.212036 -0.287565 0.96717 -20.033209 0.964536 1.212843 1e-06 1e-06 1e-06 -3.440388 0.788234 0.501656 -15.928183 -3.167309 2.999708 -6.338825 -1e-06 -1e-06 -18.123444 3.648181 -4.905669 -4e-06 -0.0 -3e-06 19.429235 -3.481505 19.514343 54.04784 -22.985449 14.400372 -178.083725 73.265144 -178.312317 -3.388163 11.335537 1.495161 2.243541 -5.255037 -3.180158 14.282888 -0.826596 6.952505 0.0 -12.690601 0.0 15.516621 -17.649855 2.584347 1.665666 -1.95592 -2.878299 4.727799 -4.170588 4.993925 11.020524 -0.0 -1e-06 12.109052 -3.735716 -2.866784 1e-06 -0.0 -1e-06 1.291985 -1.928549 -1.49809 14.800127 0.567467 3.865608 14.24257 -1.341737 -6.660658 19.631969 0.143923 -0.648245 50.005859 -0.980962 -6.321333 0.353029 -1.51115 -0.03194 20.222788 3.684309 2.316632 18.78727 3e-06 -1e-06 10.751627 -0.479869 1.397906 -1e-06 1e-06 0.0 3.273806 0.305946 -0.58011 21.486811 11.830371 2.266135 8.162927 1e-06 1e-06 18.399086 -3.798987 -4.940574 3e-06 1e-06 -0.0 -2.970986 -2.660189 9.174541 -0.119877 0.495222 30.552147 -7.026014 -6.237093 12.559875 1.844474 -1.764569 -10.115707 1e-06 0.0 -0.0 4.502981 -6.579285 -28.777838 0.011313 -0.022862 11.534024 5.02606 -2.190631 -8.326785 -1.380216 0.973554 -4.511244 0.0 0.0 -1e-06 
0.0 0.0 0.0 0.0 -0.0 0.0 7.011737 98.491562 365.639679 1.712215 0.763715 3.339181 -0.945537 -0.892368 1.101735 -0.485398 -3.953841 -4.766638 -0.362452 -5.352334 9.443352 2.044821 2.218978 6.971438 -0.886383 0.459506 -3.60034 -0.501966 -0.245543 -9.292887 7.7e-05 -2.2e-05 6e-06 -0.000949 0.025437 0.064378 0.673248 -3.714099 -10.654828 -0.677013 3.769713 -10.653625 -1.599691 -11.565645 13.919762 -51.873669 -3.434956 10.350561 -179.37822 -43.311852 179.216049 2.420326 -4.151461 -13.136127 -5.882102 9.861281 0.70259 -10.936868 -0.360576 7.156203 0.0 8.774822 -1e-06 -16.303118 18.455341 5.74072 -1.844032 2.498504 -2.507278 -10.163595 4.678943 4.621109 -20.976017 -3e-06 4e-06 -21.226276 2.451696 -3.593999 -1e-06 -6e-06 0.0 -1.362681 2.240797 -0.746323 -21.334906 0.584908 3.008324 -13.82121 -3e-06 3e-06 -23.887159 -0.249078 -0.83948 -59.802589 2.722538 -1.570713 -0.294024 1.679686 0.833256 -14.218205 0.093214 1.300582 -34.212036 -0.287562 0.967173 -20.033209 0.964538 1.212845 1e-06 0.0 0.0 -3.440388 0.788233 0.501656 -15.928183 -3.16731 2.999708 -6.338824 -2e-06 1e-06 -18.123444 3.64818 -4.905668 -4e-06 0.0 -1e-06 19.738892 -2.74081 19.655018 53.814522 -21.782427 13.527623 -178.694077 71.754898 -178.960251 -3.284443 11.257818 1.307293 2.243539 -5.255033 -3.180155 14.28288 -0.826593 6.952498 -3e-06 -12.690597 -2e-06 15.515207 -17.609854 2.544404 1.665665 -1.955922 -2.878296 4.727795 -4.170584 4.993919 11.020517 2e-06 -1e-06 12.109042 -3.735712 -2.866781 1e-06 -0.0 1e-06 1.291984 -1.928548 -1.498088 14.800117 0.567469 3.865605 14.24256 -1.341736 -6.660651 19.631952 0.143924 -0.648242 50.15551 -0.928696 -6.374246 0.353028 -1.511149 -0.03194 20.222775 3.684308 2.31663 18.787256 3e-06 1e-06 10.75162 -0.479868 1.397905 0.0 1e-06 1e-06 3.273804 0.305946 -0.58011 21.486799 11.830366 2.266135 8.162922 2e-06 1e-06 18.399071 -3.798983 -4.94057 4e-06 0.0 0.0 -2.801519 -3.533417 5.392582 0.021066 0.407805 43.892181 -9.314412 -4.527723 12.886535 1.704499 -1.830661 -5.426766 0.0 0.0 3e-06 4.534683 -5.491717 -28.071953 0.038178 -0.104938 15.60717 2.946186 -1.2269 -7.491002 -1.355671 1.050514 -4.810736 -0.0 -0.0 1e-06 
